<?xml version="1.0" encoding="UTF-8" standalone="no"?>
<!-- Created with Inkscape (http://www.inkscape.org/) -->

<svg
   width="1010"
   height="1165.3521"
   viewBox="0 0 267.22916 308.33273"
   version="1.1"
   id="svg1806"
   inkscape:version="1.2 (dc2aedaf03, 2022-05-15)"
   sodipodi:docname="drawing.svg"
   xmlns:inkscape="http://www.inkscape.org/namespaces/inkscape"
   xmlns:sodipodi="http://sodipodi.sourceforge.net/DTD/sodipodi-0.dtd"
   xmlns="http://www.w3.org/2000/svg"
   xmlns:svg="http://www.w3.org/2000/svg">
  <sodipodi:namedview
     id="namedview1808"
     pagecolor="#ffffff"
     bordercolor="#111111"
     borderopacity="1"
     inkscape:showpageshadow="0"
     inkscape:pageopacity="0"
     inkscape:pagecheckerboard="1"
     inkscape:deskcolor="#d1d1d1"
     inkscape:document-units="mm"
     showgrid="false"
     inkscape:zoom="0.23028549"
     inkscape:cx="1433.0039"
     inkscape:cy="894.5418"
     inkscape:window-width="1366"
     inkscape:window-height="697"
     inkscape:window-x="-8"
     inkscape:window-y="-8"
     inkscape:window-maximized="1"
     inkscape:current-layer="layer1" />
  <defs
     id="defs1803" />
  <g
     inkscape:label="Layer 1"
     inkscape:groupmode="layer"
     id="layer1">
    <g
       id="g1300"
       transform="matrix(1.4679365,0,0,1.4679365,-462.00065,-581.78361)">
		<polygon
   class="st17"
   points="349.6,497.4 374.4,475.3 377.7,472.6 365.2,472.6 364.7,473.1 334.2,500 334.2,472.6 324.1,472.6 324.1,532 334.2,532 334.2,509.8 342.4,502.9 364.5,531.4 365.1,532 377.5,532 375.2,529.4 "
   id="polygon1260"
   style="fill:#e74011" />

		<path
   class="st17"
   d="m 367.8,568.6 c 0,12.4 -4.8,18.3 -17,18.3 -12.2,0 -17,-5.9 -17,-18.3 V 535.8 H 324 v 35.8 c 0,14.9 9.5,24.2 26.8,24.2 17.2,0 26.7,-9.3 26.7,-24.2 v -28.2 h 17.8 v 52.4 h 9.9 v -52.4 h 17.1 v 52.4 h 9.9 v -52.4 h 14.2 v -7.6 h -78.8 v 32.8 z"
   id="path1262"
   style="fill:#e74011" />

		<polygon
   class="st17"
   points="381.4,532 391.4,532 391.4,489.8 409.4,531 409.8,532 418.3,532 418.7,531 436.7,489.9 436.7,532 446.6,532 446.6,472.6 434.1,472.6 433.6,473.6 414.2,519.5 394.5,473.6 394.1,472.6 381.4,472.6 "
   id="polygon1264"
   style="fill:#e74011" />

		<g
   id="g1298">
			<path
   class="st17"
   d="m 438.5,411 c 0,2.3 -1.8,4.1 -4.1,4.1 -2.3,0 -4.1,-1.8 -4.1,-4.1 0,-2.3 1.8,-4.1 4.1,-4.1 2.2,0 4.1,1.8 4.1,4.1"
   id="path1266"
   style="fill:#e74011" />

			<path
   class="st17"
   d="m 438.5,423.3 c 0,2.3 -1.8,4.1 -4.1,4.1 -2.3,0 -4.1,-1.8 -4.1,-4.1 0,-2.3 1.8,-4.1 4.1,-4.1 2.2,0 4.1,1.8 4.1,4.1"
   id="path1268"
   style="fill:#e74011" />

			<path
   class="st17"
   d="m 438.5,447.9 c 0,2.3 -1.8,4.1 -4.1,4.1 -2.3,0 -4.1,-1.8 -4.1,-4.1 0,-2.3 1.8,-4.1 4.1,-4.1 2.2,0 4.1,1.9 4.1,4.1"
   id="path1270"
   style="fill:#e74011" />

			<path
   class="st17"
   d="m 438.5,460.3 c 0,2.3 -1.8,4.1 -4.1,4.1 -2.3,0 -4.1,-1.8 -4.1,-4.1 0,-2.3 1.8,-4.1 4.1,-4.1 2.2,0 4.1,1.8 4.1,4.1"
   id="path1272"
   style="fill:#e74011" />

			<path
   class="st17"
   d="m 438.5,435.6 c 0,2.3 -1.8,4.1 -4.1,4.1 -2.3,0 -4.1,-1.8 -4.1,-4.1 0,-2.3 1.8,-4.1 4.1,-4.1 2.3,0 4.1,1.9 4.1,4.1"
   id="path1274"
   style="fill:#e74011" />

			<path
   class="st17"
   d="m 426.3,435.6 c 0,2.3 -1.8,4.1 -4.1,4.1 -2.3,0 -4.1,-1.8 -4.1,-4.1 0,-2.3 1.8,-4.1 4.1,-4.1 2.2,0 4.1,1.9 4.1,4.1"
   id="path1276"
   style="fill:#e74011" />

			<path
   class="st17"
   d="m 414,435.6 c 0,2.3 -1.8,4.1 -4.1,4.1 -2.3,0 -4.1,-1.8 -4.1,-4.1 0,-2.3 1.8,-4.1 4.1,-4.1 2.3,0 4.1,1.9 4.1,4.1"
   id="path1278"
   style="fill:#e74011" />

			<path
   class="st17"
   d="m 463,435.6 c 0,2.3 -1.8,4.1 -4.1,4.1 -2.3,0 -4.1,-1.8 -4.1,-4.1 0,-2.3 1.8,-4.1 4.1,-4.1 2.3,0 4.1,1.9 4.1,4.1"
   id="path1280"
   style="fill:#e74011" />

			<path
   class="st17"
   d="m 463,447.9 c 0,2.3 -1.8,4.1 -4.1,4.1 -2.3,0 -4.1,-1.8 -4.1,-4.1 0,-2.3 1.8,-4.1 4.1,-4.1 2.3,0 4.1,1.9 4.1,4.1"
   id="path1282"
   style="fill:#e74011" />

			<path
   class="st17"
   d="m 450.8,435.6 c 0,2.3 -1.8,4.1 -4.1,4.1 -2.3,0 -4.1,-1.8 -4.1,-4.1 0,-2.3 1.8,-4.1 4.1,-4.1 2.3,0 4.1,1.9 4.1,4.1"
   id="path1284"
   style="fill:#e74011" />

			<path
   class="st17"
   d="m 475.3,460.3 c 0,2.3 -1.8,4.1 -4.1,4.1 -2.3,0 -4.1,-1.8 -4.1,-4.1 0,-2.3 1.8,-4.1 4.1,-4.1 2.2,0 4.1,1.8 4.1,4.1"
   id="path1286"
   style="fill:#e74011" />

			<path
   class="st17"
   d="m 463,460.3 c 0,2.3 -1.8,4.1 -4.1,4.1 -2.3,0 -4.1,-1.8 -4.1,-4.1 0,-2.3 1.8,-4.1 4.1,-4.1 2.3,0 4.1,1.8 4.1,4.1"
   id="path1288"
   style="fill:#e74011" />

			<path
   class="st17"
   d="m 450.8,460.3 c 0,2.3 -1.8,4.1 -4.1,4.1 -2.3,0 -4.1,-1.8 -4.1,-4.1 0,-2.3 1.8,-4.1 4.1,-4.1 2.3,0 4.1,1.8 4.1,4.1"
   id="path1290"
   style="fill:#e74011" />

			<path
   class="st17"
   d="m 487.5,460.3 c 0,2.3 -1.8,4.1 -4.1,4.1 -2.3,0 -4.1,-1.8 -4.1,-4.1 0,-2.3 1.8,-4.1 4.1,-4.1 2.3,0 4.1,1.8 4.1,4.1"
   id="path1292"
   style="fill:#e74011" />

			<path
   class="st17"
   d="m 463,472.6 c 0,2.3 -1.8,4.1 -4.1,4.1 -2.3,0 -4.1,-1.8 -4.1,-4.1 0,-2.3 1.8,-4.1 4.1,-4.1 2.3,0 4.1,1.8 4.1,4.1"
   id="path1294"
   style="fill:#e74011" />

			<path
   class="st17"
   d="m 463,484.9 c 0,2.3 -1.8,4.1 -4.1,4.1 -2.3,0 -4.1,-1.8 -4.1,-4.1 0,-2.3 1.8,-4.1 4.1,-4.1 2.3,0 4.1,1.8 4.1,4.1"
   id="path1296"
   style="fill:#e74011" />

		</g>

	</g>
  </g>
</svg>
